<?xml version="1.0" encoding="UTF-8" standalone="no"?>
<!-- Created with Inkscape (http://www.inkscape.org/) -->

<svg
   xmlns:dc="http://purl.org/dc/elements/1.1/"
   xmlns:cc="http://creativecommons.org/ns#"
   xmlns:rdf="http://www.w3.org/1999/02/22-rdf-syntax-ns#"
   xmlns:svg="http://www.w3.org/2000/svg"
   xmlns="http://www.w3.org/2000/svg"
   xmlns:sodipodi="http://sodipodi.sourceforge.net/DTD/sodipodi-0.dtd"
   xmlns:inkscape="http://www.inkscape.org/namespaces/inkscape"
   width="50"
   height="50"
   viewBox="0 0 13.229166 13.229167"
   version="1.1"
   id="svg8"
   inkscape:version="0.92.4 (5da689c313, 2019-01-14)"
   sodipodi:docname="filledknight.svg">
  <defs
     id="defs2" />
  <sodipodi:namedview
     id="base"
     pagecolor="#ffffff"
     bordercolor="#666666"
     borderopacity="1.0"
     inkscape:pageopacity="0.0"
     inkscape:pageshadow="2"
     inkscape:zoom="8"
     inkscape:cx="27.089997"
     inkscape:cy="23.259836"
     inkscape:document-units="px"
     inkscape:current-layer="layer1"
     showgrid="false"
     units="px"
     inkscape:pagecheckerboard="true"
     inkscape:window-width="700"
     inkscape:window-height="696"
     inkscape:window-x="-7"
     inkscape:window-y="0"
     inkscape:window-maximized="0" />
  <metadata
     id="metadata5">
    <rdf:RDF>
      <cc:Work
         rdf:about="">
        <dc:format>image/svg+xml</dc:format>
        <dc:type
           rdf:resource="http://purl.org/dc/dcmitype/StillImage" />
        <dc:title></dc:title>
      </cc:Work>
    </rdf:RDF>
  </metadata>
  <g
     inkscape:label="Layer 1"
     inkscape:groupmode="layer"
     id="layer1"
     transform="translate(0,-283.77082)">
    <path
       style="opacity:1;fill:#ffffff;fill-opacity:1;stroke:#ffffff;stroke-width:0.48074639;stroke-linecap:round;stroke-linejoin:round;stroke-miterlimit:4;stroke-dasharray:none;stroke-opacity:1;paint-order:stroke markers fill"
       d="m 4.7685178,285.29264 c 0,0 -0.6100334,0.35626 -0.8154616,0.71222 -0.2054281,0.35597 -0.3907393,0.76674 -0.6084226,1.33418 -0.2172559,0.65395 -0.3361643,1.39002 -0.386204,2.08155 -2.523e-4,0.99045 0.3216307,1.99799 0.6098676,2.9481 0.07788,0.50862 -0.7011176,1.49329 -0.2020327,1.51466 1.1262269,-0.18138 3.4591868,-0.63776 4.7076637,-0.18052 0.414313,-0.0349 1.9392468,0.53454 1.7233647,0.0863 -0.2106389,-0.93536 -2.0313162,-2.63477 -2.4049519,-3.48507 -0.2267961,-0.37629 0.061362,-1.41515 0.4955187,-0.81332 0.4040354,0.21764 0.6343886,0.72813 1.243521,0.66087 0.6551314,-0.14431 0.2181527,-0.94792 0.2181527,-0.94792 0.4426337,0.21003 1.2123386,-0.38422 0.8091446,-0.84957 -0.4959079,-0.49972 -1.0003111,-0.99543 -1.4686326,-1.52317 -0.4430842,-0.65026 -1.1070085,-1.09685 -1.8152044,-1.33449 l 0.030246,-1.43239 c -1.6063519,0.46108 -1.9739715,1.00406 -2.1365692,1.22855 z"
       id="path871"
       inkscape:connector-curvature="0"
       sodipodi:nodetypes="ccccccccccccccccc" />
    <rect
       style="opacity:1;fill:#ffffff;fill-opacity:1;stroke:#ffffff;stroke-width:0.55430001;stroke-linecap:round;stroke-linejoin:round;stroke-miterlimit:4;stroke-dasharray:none;stroke-opacity:1;paint-order:stroke markers fill"
       id="rect827"
       width="10.00562"
       height="1.5176969"
       x="1.6117734"
       y="295.27194"
       ry="0.18801646" />
    <ellipse
       style="opacity:1;fill:#ffffff;fill-opacity:1;stroke:#ffffff;stroke-width:0.53426015;stroke-linecap:round;stroke-linejoin:round;stroke-miterlimit:4;stroke-dasharray:none;stroke-opacity:1;paint-order:stroke markers fill"
       id="path852"
       cx="6.6145835"
       cy="294.47662"
       rx="4.149096"
       ry="0.57537293" />
  </g>
</svg>
