<?xml version="1.0" encoding="UTF-8" standalone="no"?>
<!-- Created with Inkscape (http://www.inkscape.org/) -->

<!--
  Open Chaos Chess is a free as in speech version of Chaos Chess
  Chaos Chess is a chess game where you control the piece that moves, but not how it moves
      Copyright (C) 2019  Noah Stanford <noahstandingford@gmail.com>

      Open Chaos Chess is free software: you can redistribute it and/or modify
      it under the terms of the GNU General Public License as published by
      the Free Software Foundation, either version 3 of the License, or
      (at your option) any later version.

      Open Chaos Chess is distributed in the hope that it will be fun,
      but WITHOUT ANY WARRANTY; without even the implied warranty of
      MERCHANTABILITY or FITNESS FOR A PARTICULAR PURPOSE.  See the
      GNU General Public License for more details.

      You should have received a copy of the GNU General Public License
      along with this program.  If not, see <https://www.gnu.org/licenses/>.
      -->

<svg
   xmlns:dc="http://purl.org/dc/elements/1.1/"
   xmlns:cc="http://creativecommons.org/ns#"
   xmlns:rdf="http://www.w3.org/1999/02/22-rdf-syntax-ns#"
   xmlns:svg="http://www.w3.org/2000/svg"
   xmlns="http://www.w3.org/2000/svg"
   xmlns:xlink="http://www.w3.org/1999/xlink"
   xmlns:sodipodi="http://sodipodi.sourceforge.net/DTD/sodipodi-0.dtd"
   xmlns:inkscape="http://www.inkscape.org/namespaces/inkscape"
   width="50"
   height="50"
   viewBox="0 0 13.229167 13.229167"
   version="1.1"
   id="svg821"
   inkscape:version="0.92.4 (5da689c313, 2019-01-14)"
   sodipodi:docname="filledqueen.svg">
  <defs
     id="defs815" />
  <sodipodi:namedview
     id="base"
     pagecolor="#ffffff"
     bordercolor="#666666"
     borderopacity="1.0"
     inkscape:pageopacity="0.0"
     inkscape:pageshadow="2"
     inkscape:zoom="7.5801847"
     inkscape:cx="-8.5761587"
     inkscape:cy="15.525351"
     inkscape:document-units="px"
     inkscape:current-layer="layer1"
     showgrid="false"
     inkscape:pagecheckerboard="true"
     units="px"
     inkscape:window-width="1366"
     inkscape:window-height="705"
     inkscape:window-x="-8"
     inkscape:window-y="-8"
     inkscape:window-maximized="1" />
  <metadata
     id="metadata818">
    <rdf:RDF>
      <cc:Work
         rdf:about="">
        <dc:format>image/svg+xml</dc:format>
        <dc:type
           rdf:resource="http://purl.org/dc/dcmitype/StillImage" />
        <dc:title></dc:title>
      </cc:Work>
    </rdf:RDF>
  </metadata>
  <g
     inkscape:label="Layer 1"
     inkscape:groupmode="layer"
     id="layer1"
     transform="translate(0,-283.77083)">
    <path
       inkscape:connector-curvature="0"
       id="path1366"
       style="opacity:1;fill:#ffffff;fill-opacity:1;stroke:#ffffff;stroke-width:0.17687185;stroke-linecap:round;stroke-linejoin:round;stroke-miterlimit:4;stroke-dasharray:none;stroke-opacity:1;paint-order:stroke markers fill"
       d="m 4.2106472,284.94676 a 0.34345109,0.36434477 0 0 1 -0.3434532,-0.36434 0.34345109,0.36434477 0 0 1 0.3434532,-0.36434 0.34345109,0.36434477 0 0 1 0.3434468,0.36434 0.34345109,0.36434477 0 0 1 -0.3434468,0.36434 z" />
    <use
       height="100%"
       width="100%"
       x="0"
       y="0"
       inkscape:tiled-clone-of="#path1366"
       xlink:href="#path1366"
       id="use5103"
       transform="translate(2.4039401,-0.35881764)"
       style="fill:none" />
    <use
       height="100%"
       width="100%"
       x="0"
       y="0"
       inkscape:tiled-clone-of="#path1366"
       xlink:href="#path1366"
       id="use5105"
       transform="translate(4.8078791,-1.323e-5)"
       style="stroke-width:0.26458335;stroke-miterlimit:4;stroke-dasharray:none;fill:none" />
    <path
       style="opacity:1;fill:#ffffff;fill-opacity:1;stroke:#ffffff;stroke-width:0.26458334;stroke-linecap:round;stroke-linejoin:round;stroke-miterlimit:4;stroke-dasharray:none;stroke-opacity:1;paint-order:stroke markers fill"
       d="m 6.6145835,285.117 c -0.2506755,0.658 -0.5012172,1.31604 -0.7518921,1.97404 -0.4594035,-0.5383 -0.918807,-1.07659 -1.3782104,-1.61489 -0.067883,0.70058 -0.1356231,1.40121 -0.19327,2.10272 -0.04228,0.0701 -0.00509,0.17141 -0.02114,0.25419 -0.033501,0.1469 0.00601,0.28424 0.00254,0.4299 0.011162,0.13876 -0.059066,0.36394 0.1322916,0.39233 0.8036566,0.2092 1.6417569,0.13352 2.4631916,0.15296 0.6296734,-0.004 1.2682323,0.006 1.8860442,-0.13021 0.33039,-0.0512 0.1611611,-0.44993 0.2188811,-0.66701 -0.018672,-0.20833 -0.019167,-0.40902 -0.050607,-0.60945 -0.053775,-0.6423 -0.1162323,-1.28383 -0.1777228,-1.92543 -0.4593143,0.53837 -0.9188958,1.07652 -1.3782104,1.61489 -0.2506749,-0.658 -0.5012168,-1.31604 -0.7518921,-1.97404 z"
       id="rect5168"
       inkscape:connector-curvature="0"
       sodipodi:nodetypes="ccccccccccccccc" />
    <path
       style="opacity:1;fill:#ffffff;fill-opacity:1;stroke:#ffffff;stroke-width:1;stroke-linecap:round;stroke-linejoin:round;stroke-miterlimit:4;stroke-dasharray:none;stroke-opacity:1;paint-order:stroke markers fill"
       d="M 25 19.21875 C 23.30655 19.21875 21.943359 19.772707 21.943359 20.460938 L 21.943359 20.632812 A 8.1753949 1.1428999 0 0 0 16.824219 21.691406 A 8.1753949 1.1428999 0 0 0 22 22.753906 C 22.262294 23.332358 23.498531 23.767578 25 23.767578 C 26.499923 23.767578 27.735962 23.333422 28 22.755859 A 8.1753949 1.1428999 0 0 0 33.175781 21.691406 A 8.1753949 1.1428999 0 0 0 28.056641 20.632812 L 28.056641 20.460938 C 28.056641 19.772707 26.69345 19.21875 25 19.21875 z "
       transform="matrix(0.26458334,0,0,0.26458334,0,283.77083)"
       id="rect5179" />
    <rect
       style="opacity:1;fill:#ffffff;fill-opacity:1;stroke:#ffffff;stroke-width:0.26458334;stroke-linecap:round;stroke-linejoin:round;stroke-miterlimit:4;stroke-dasharray:none;stroke-opacity:1;paint-order:stroke markers fill"
       id="rect5204"
       width="2.6756134"
       height="3.9590399"
       x="5.2767768"
       y="290.11707"
       rx="0.67117381"
       ry="0.83132613" />
    <rect
       style="opacity:1;fill:#ffffff;fill-opacity:1;stroke:#ffffff;stroke-width:0.26458334;stroke-linecap:round;stroke-linejoin:round;stroke-miterlimit:4;stroke-dasharray:none;stroke-opacity:1;paint-order:stroke markers fill"
       id="rect5248"
       width="6.0309711"
       height="1.3307607"
       x="3.599098"
       y="295.52075"
       rx="0"
       ry="0.66538036" />
    <rect
       style="opacity:1;fill:#ffffff;fill-opacity:1;stroke:#ffffff;stroke-width:0.26458334;stroke-linecap:round;stroke-linejoin:round;stroke-miterlimit:4;stroke-dasharray:none;stroke-opacity:1;paint-order:stroke markers fill"
       id="rect5260"
       width="4.8320255"
       height="0.90719813"
       x="4.1985707"
       y="294.33771"
       ry="0.45359907"
       rx="0" />
  </g>
</svg>
